<svg width="46" height="92" viewBox="0 0 46 92" fill="none" xmlns="http://www.w3.org/2000/svg">
<g clip-path="url(#clip0_438_2)">
<path d="M23 0C10.2944 0 0 10.2944 0 23C0 35.7056 10.2944 46 23 46C35.7056 46 46 35.7056 46 23C46 10.2944 35.7056 0 23 0ZM34.296 15.7569L30.5214 33.5448C30.2431 34.806 29.4919 35.1121 28.444 34.5185L22.694 30.2802L19.921 32.9512C19.6149 33.2573 19.3552 33.5169 18.7617 33.5169L19.1698 27.6649L29.8258 18.0383C30.2895 17.6302 29.7238 17.3984 29.1117 17.8065L15.9423 26.0976L10.2665 24.3262C9.03306 23.9367 9.00524 23.0927 10.5262 22.4992L32.7008 13.9484C33.7302 13.5774 34.6298 14.1988 34.296 15.7569Z" fill="#888888"/>
<path d="M23 46C10.2944 46 0 56.2944 0 69C0 81.7056 10.2944 92 23 92C35.7056 92 46 81.7056 46 69C46 56.2944 35.7056 46 23 46ZM34.296 61.7569L30.5214 79.5448C30.2431 80.806 29.4919 81.1121 28.444 80.5185L22.694 76.2802L19.921 78.9512C19.6149 79.2573 19.3552 79.5169 18.7617 79.5169L19.1698 73.6649L29.8258 64.0383C30.2895 63.6302 29.7238 63.3984 29.1117 63.8065L15.9423 72.0976L10.2665 70.3262C9.03306 69.9367 9.00524 69.0927 10.5262 68.4992L32.7008 59.9484C33.7302 59.5774 34.6298 60.1988 34.296 61.7569Z" fill="#FF82C8"/>
</g>
<defs>
<clipPath id="clip0_438_2">
<rect width="46" height="92" fill="white"/>
</clipPath>
</defs>
</svg>
